<svg width="20" height="20" viewBox="0 0 20 20" fill="none" xmlns="http://www.w3.org/2000/svg" class="me-2">
                          <path d="M14.035 7.27523L9.99857 5.06995L5.96218 7.27523L4.06738 6.24026L9.99857 3L15.9298 6.24026L14.035 7.27523Z" fill="#003866"></path>
                          <path d="M7.22754 12.3789L10.0021 10.8623L12.7766 12.3789L10.0021 13.8956L7.22754 12.3789Z" fill="#003866"></path>
                          <path d="M10.6309 6.79297L13.4054 8.3096V11.3429L10.6309 9.82624V6.79297Z" fill="#003866"></path>
                          <path d="M9.36918 9.82714L6.59863 11.3438V8.31449L9.36918 6.79785V9.82714Z" fill="#003866"></path>
                          <path d="M16.5581 13.7599L10.6309 17.0002V14.9302L14.6673 12.7249V8.31036L16.5621 7.27539V13.7559L16.5581 13.7599Z" fill="#003866"></path>
                          <path d="M5.33327 8.31036V12.7249L9.36967 14.9302V17.0002L3.43848 13.7599V7.27539L5.33327 8.31036Z" fill="#003866"></path>
                        </svg>