<svg width="82" height="32" viewBox="0 0 82 32" fill="none" xmlns="http://www.w3.org/2000/svg">
<g clip-path="url(#clip0_591_14243)">
<mask id="mask0_591_14243" style="mask-type:luminance" maskUnits="userSpaceOnUse" x="0" y="3" width="82" height="26">
<path d="M81.842 3.31836H0.592773V28.1103H81.842V3.31836Z" fill="white"/>
</mask>
<g mask="url(#mask0_591_14243)">
<path d="M39.3569 3.31836C39.3569 3.31836 38.4427 3.33788 37.9131 3.32812C37.8911 3.55025 37.636 5.56529 37.4163 7.18611C37.1637 8.6861 35.1633 19.8097 34.4871 23.1392C34.309 24.1449 33.7548 26.985 33.7048 27.2694C33.0677 27.3451 32.3159 27.4159 31.824 27.4341C31.7581 27.4341 31.6483 27.4574 31.5958 27.4574V28.0346C31.6556 28.0346 31.9741 28.0566 32.1999 28.0469C32.7406 28.0298 34.2748 27.9565 34.5665 27.9565C35.6649 27.9565 36.4058 28.0298 37.4261 28.0493C37.4395 28.0493 37.7203 28.0493 37.8435 28.0322V27.4501H37.5799C36.9485 27.4333 36.3182 27.3847 35.6917 27.3048C35.7552 26.924 36.6938 21.1632 37.1442 18.859C37.9985 14.5945 38.5929 11.5726 38.5929 11.5726L38.7515 11.9472L45.518 28.0749L46.7531 28.081C46.7531 28.081 47.4585 26.3345 48.2958 24.3756C48.3177 24.3292 48.3776 24.1888 48.4631 23.9887C49.3418 21.9541 53.6953 11.6324 53.6953 11.6324C53.6953 11.6324 53.7368 11.8179 53.8051 12.1511C54.2201 14.1747 55.6224 21.4659 55.9215 23.2259C56.0619 24.1315 56.1937 25.0493 56.2705 25.5863C56.3828 26.3479 56.4573 27.0924 56.4573 27.3072C56.3205 27.3133 54.9426 27.4378 54.4202 27.461C54.3458 27.461 54.2067 27.461 54.1982 27.461V28.0481C54.3849 28.0481 54.5643 28.0566 54.7474 28.0481C55.8128 28.0273 56.8369 27.9443 57.9011 27.9443C59.0984 27.9443 61.039 28.0505 62.2815 28.0578C62.4218 28.0578 62.6708 28.0456 62.6708 28.0456V27.4525C62.6 27.4525 62.2863 27.4366 62.1716 27.428C61.6139 27.3841 60.6753 27.2975 60.4373 27.2816C60.4373 27.2816 60.2835 26.4273 60.0809 25.4509C59.2656 21.516 56.9516 9.55388 56.5976 6.6137C56.4755 5.60191 56.1338 3.33056 56.1338 3.33056H54.7425L53.3841 7.22395C52.9422 8.49452 52.3405 10.064 51.8828 11.2674C49.6213 17.2125 47.0851 22.7511 47.0851 22.7511C47.0851 22.7511 41.6929 9.8907 41.4073 9.14621C41.1218 8.40173 39.3569 3.31836 39.3569 3.31836ZM0.603758 3.31836L0.615963 4.67799L0.592773 7.99406L0.951603 7.9843L0.989436 5.03926C0.989436 5.03926 2.95565 5.02705 3.20952 5.02705H6.871L9.23752 5.03926V25.518V27.2865L9.18749 27.2938C8.87261 27.3182 7.65944 27.3927 7.16758 27.4159C7.05773 27.4159 6.98694 27.422 6.97474 27.4159V28.0151C7.06384 28.0151 7.30305 28.0249 7.34089 28.0236C8.50521 28.009 10.0821 27.9016 11.2001 27.9089C12.3181 27.9162 13.934 28.02 14.9226 28.031C15.0202 28.031 15.1362 28.0225 15.2314 28.0225V27.461H15.1093C14.7945 27.461 13.0515 27.3475 12.871 27.3243C12.8636 27.0497 12.8307 25.723 12.8307 25.6937L12.8465 5.03438H14.648H19.3493L20.9189 5.05635C20.9299 5.16863 21.0093 6.66008 21.0068 6.70035C21.0068 6.80898 21.0654 7.92086 21.0629 8.19306H21.4291L21.4022 4.84398L21.4266 3.34033C20.045 3.37816 16.5239 3.42576 11.0524 3.4221C6.3706 3.41965 1.85354 3.3806 0.603758 3.31836ZM22.4933 3.31836V3.90542C22.6789 3.91518 23.77 4.0116 24.0348 4.02747C24.246 4.0531 24.5413 4.07995 24.7537 4.1007C24.7537 4.28865 24.7537 5.58482 24.7598 6.0962C24.7952 10.944 24.7598 21.6563 24.7513 25.4472C24.7513 26.5457 24.7439 27.2499 24.7439 27.2499C24.4927 27.2947 24.2386 27.3204 23.9836 27.3267C23.7053 27.3463 22.7094 27.4293 22.4872 27.4341V28.0212C22.58 28.0212 22.7484 28.0407 22.8449 28.0395C23.9726 28.0395 25.5409 27.9004 26.6967 27.9004C27.8525 27.9004 29.4233 28.0432 30.3435 28.0432C30.4229 28.0432 30.6121 28.0236 30.6926 28.0236V27.4378H30.6169C30.5816 27.4305 29.3965 27.3804 29.1072 27.3499C28.8349 27.3345 28.5636 27.3051 28.2943 27.2621C28.2943 27.2511 28.2943 27.0753 28.2943 26.7824C28.2943 26.4895 28.2943 26.044 28.2943 25.5436C28.2943 21.7198 28.3078 10.3643 28.3102 6.0242C28.3102 5.18572 28.3102 4.50346 28.3102 4.13853C28.5653 4.12267 29.6088 4.01648 29.9823 3.97986L30.6963 3.93715V3.3269C29.4197 3.3269 27.7305 3.42576 26.4856 3.42576C25.1809 3.43186 23.5759 3.32934 22.4933 3.32934V3.31836ZM81.5649 3.33544H81.181C80.3265 3.33544 78.1414 3.35497 75.5861 3.36961C74.0165 3.37816 72.7887 3.39158 71.1728 3.39037C70.0389 3.41478 68.4523 3.45871 67.4759 3.45627C65.9112 3.45627 64.6346 3.35741 63.9365 3.35497C63.6069 3.35497 63.4226 3.36596 63.3323 3.35497C63.3323 3.36351 63.3323 3.93349 63.3323 3.93349C63.4294 3.94941 63.528 3.95676 63.6265 3.95545C64.0195 3.98231 64.7542 4.04089 65.1277 4.09094C65.2021 4.10436 65.3278 4.12511 65.6794 4.16416C65.6794 4.29354 65.6952 5.76423 65.6928 6.64665C65.6928 7.46438 65.6842 25.7157 65.6842 25.7157C65.6842 25.745 65.6427 27.1803 65.6427 27.3023C64.9076 27.4039 64.167 27.4618 63.4251 27.4756H63.303V28.0566C63.3604 28.0566 63.6265 28.0664 63.7778 28.0664C64.4344 28.0664 66.1248 27.9614 67.8518 27.9602C69.0625 27.9602 70.3941 28.0041 71.7415 28.0236C73.4026 28.0469 75.082 28.0481 76.5918 28.0688C79.0818 28.1042 81.0991 28.1067 81.7546 28.1079C81.7546 28.1079 81.8342 23.4895 81.8342 23.1173H81.4736C81.4736 23.5103 81.3285 24.9724 81.3222 25.0371C81.2762 25.5875 81.2263 26.1648 81.188 26.4492C81.188 26.4492 81.0124 26.4626 80.9266 26.4615C80.5185 26.4541 79.2113 26.5017 79.184 26.5017H73.3563L69.264 26.4334L69.2371 25.2983V16.4839C69.9693 16.4595 71.0812 16.4204 71.7598 16.4216C72.3359 16.4216 73.6955 16.3899 74.4559 16.3924C76.3038 16.3924 77.9453 16.407 78.0759 16.4119C78.381 16.4204 78.946 16.4387 79.1598 16.4521C79.1684 16.5303 79.1926 16.6511 79.1949 16.6852C79.305 17.3602 79.365 17.8276 79.4392 18.4903C79.4501 18.5502 79.4548 18.6124 79.4634 18.6625H79.8832C79.8832 18.6625 79.8941 18.4257 79.8832 18.278C79.8746 17.7581 79.8419 16.7218 79.8419 15.5734C79.8419 14.7776 79.8856 13.5595 79.891 12.9737C79.891 12.815 79.8746 12.7027 79.8746 12.6576L79.4907 12.6649C79.4852 12.77 79.4743 12.8747 79.4571 12.9786C79.4244 13.4155 79.3011 13.9733 79.2027 14.5653C79.1824 14.6226 79.1676 14.6814 79.1559 14.741C79.1122 14.7556 77.9075 14.8203 77.8001 14.8191C77.7586 14.8191 76.0047 14.8679 75.9693 14.8679L69.2456 14.8471L69.2566 5.12713C69.2566 5.12713 70.111 5.09662 70.3551 5.09784C71.3314 5.09784 72.9083 5.0893 74.5193 5.09174C76.8773 5.09174 79.1668 5.10883 79.1715 5.11249C79.177 5.11615 79.8824 5.12835 79.8965 5.14056C79.9113 5.15276 80.7869 5.17961 80.9953 5.18693C80.9953 5.18693 81.0109 5.25895 81.0218 5.35049C81.1186 6.3757 81.1982 7.59254 81.2333 8.0234V8.19548H81.593C81.593 7.56446 81.5603 5.63242 81.5556 4.40216C81.5556 4.00672 81.5556 3.68572 81.5556 3.50265L81.5649 3.33544Z" fill="#E90606"/>
</g>
</g>
<defs>
<clipPath id="clip0_591_14243">
<rect width="81.94" height="31.9956" fill="white" transform="translate(-0.000976562 0.00195312)"/>
</clipPath>
</defs>
</svg>
