<svg width="71" height="32" viewBox="0 0 71 32" fill="none" xmlns="http://www.w3.org/2000/svg">
<mask id="mask0_591_14250" style="mask-type:luminance" maskUnits="userSpaceOnUse" x="1" y="0" width="69" height="32">
<path d="M69.9275 0.108398H1.25146V31.3219H69.9275V0.108398Z" fill="white"/>
</mask>
<g mask="url(#mask0_591_14250)">
<path d="M45.6079 9.62166C45.4808 9.61308 45.4051 9.60457 45.3294 9.60457C43.6704 9.60457 42.0113 9.60457 40.3553 9.60457C40.0646 9.60457 40.0555 9.61597 39.9768 9.88877C39.344 12.1056 38.7083 14.3197 38.0755 16.5365C37.6789 17.9234 37.2884 19.3132 36.8918 20.7002C36.4135 22.3714 35.9321 24.0396 35.4537 25.7108C35.3054 26.2281 35.1601 26.7454 35.0147 27.2626C34.9875 27.3621 34.9542 27.4588 34.9239 27.5582C34.8997 27.6407 34.8452 27.6804 34.7544 27.6861C34.6 27.6975 34.4426 27.7259 34.2881 27.7259C32.2779 27.7259 30.2676 27.7288 28.2574 27.7259C28.0969 27.7259 27.9364 27.6947 27.7457 27.6776C27.7669 27.5639 27.776 27.4786 27.8002 27.3962C28.218 25.9439 28.6328 24.4944 29.0536 23.0449C29.6561 20.9588 30.2616 18.8699 30.864 16.7838C31.2788 15.34 31.6906 13.8962 32.1053 12.4524C32.3475 11.6111 32.5928 10.7699 32.8349 9.92576C32.8622 9.83477 32.8834 9.74387 32.9046 9.65577C32.7138 9.59037 28.0152 9.58468 27.776 9.64437C27.7881 9.68987 27.7911 9.74098 27.8124 9.78366C28.2392 10.7443 28.4966 11.7447 28.6237 12.7792C28.7085 13.4585 28.7115 14.1434 28.6691 14.8227C28.5692 16.4683 28.1545 18.0485 27.4521 19.5633C26.8678 20.8224 26.1079 21.9792 25.1663 23.0307C24.7788 23.4627 24.3731 23.8833 23.9371 24.267C22.9593 25.1282 21.8784 25.8615 20.6947 26.4612C19.2839 27.1745 17.7883 27.652 16.217 27.9192C15.5631 28.03 14.9061 28.121 14.24 28.1295C13.9525 28.1352 13.6618 28.1721 13.3742 28.1636C12.8989 28.1494 12.4236 28.1125 11.9483 28.0755C11.2519 28.0215 10.5707 27.8964 9.89558 27.7344C8.54231 27.4104 7.27683 26.9017 6.11729 26.1656C5.41491 25.7194 4.76097 25.2191 4.1918 24.6308C3.24723 23.6559 2.5176 22.5533 2.01201 21.3198C1.65476 20.4444 1.43981 19.5378 1.32477 18.6112C1.24302 17.9632 1.23394 17.3067 1.27633 16.6559C1.38229 15.0188 1.77586 13.4414 2.46916 11.9294C3.05043 10.6619 3.81034 9.49658 4.74886 8.4336C5.17876 7.94761 5.62381 7.47585 6.12637 7.05521C7.04068 6.285 8.02159 5.60006 9.10541 5.04016C10.2922 4.42626 11.5395 3.97152 12.8565 3.67594C13.565 3.51678 14.2794 3.40026 15.006 3.34342C15.5994 3.2951 16.1898 3.24679 16.7831 3.26668C18.0759 3.31215 19.3505 3.46847 20.5948 3.82089C21.3608 4.03973 22.0994 4.31542 22.8049 4.67068C23.5224 5.03163 24.2127 5.43805 24.8151 5.95532C25.1481 6.24237 25.472 6.54079 25.799 6.83353C25.8596 6.88753 25.9201 6.93585 26.014 7.01542C26.0564 6.89606 26.0866 6.81648 26.1109 6.73406C26.3652 5.84163 26.6165 4.94921 26.8799 4.05963C26.9768 3.72995 26.904 3.71005 27.3673 3.71005C34.5637 3.71005 41.76 3.71005 48.9564 3.71005C49.026 3.71005 49.0986 3.71005 49.1683 3.71005C49.3529 3.72426 49.3863 3.76974 49.3378 3.93742C49.2621 4.19889 49.1834 4.46037 49.1078 4.72184C48.9443 5.28742 48.7838 5.85584 48.6264 6.42142C48.6112 6.47542 48.6082 6.53226 48.59 6.64027C48.699 6.56921 48.7686 6.52942 48.8322 6.4811C49.7647 5.80468 50.7638 5.23342 51.8294 4.76447C52.9315 4.28131 54.0759 3.90616 55.2656 3.67026C55.853 3.55373 56.4464 3.45141 57.0428 3.37468C57.5151 3.315 57.9904 3.30079 58.4657 3.26668C58.6988 3.24963 58.935 3.22689 59.1681 3.22974C59.6525 3.23542 60.1369 3.24395 60.6213 3.27805C61.1269 3.315 61.6325 3.37468 62.135 3.44573C63.3703 3.6191 64.5662 3.93742 65.7136 4.395C66.7914 4.82416 67.7904 5.38121 68.6926 6.0889C69.0862 6.39868 69.4646 6.73121 69.7886 7.10921C69.9733 7.32237 69.9793 7.35648 69.7734 7.54406C69.0922 8.1693 68.411 8.79458 67.7268 9.41698C67.2788 9.82627 66.8276 10.2327 66.3765 10.6391C66.0375 10.9432 65.7015 11.2473 65.3593 11.5514C65.214 11.6821 65.1989 11.6736 65.0505 11.5542C64.7235 11.2928 64.4117 11.0143 64.0635 10.7784C62.9646 10.0338 61.7536 9.52217 60.3973 9.34597C60.0491 9.30048 59.7009 9.23509 59.3498 9.22658C58.8684 9.21519 58.384 9.23228 57.9026 9.26919C57.3093 9.31468 56.7279 9.43688 56.1587 9.60177C55.084 9.91726 54.1182 10.4146 53.2584 11.0938C52.3351 11.8242 51.6236 12.7053 51.1059 13.7228C50.7759 14.368 50.5579 15.0444 50.4065 15.7464C50.2552 16.4427 50.237 17.1475 50.2824 17.8467C50.352 18.8642 50.7063 19.7936 51.4087 20.5922C52.114 21.3908 53.0253 21.8683 54.0758 22.1412C55.1113 22.4083 56.1588 22.414 57.2154 22.289C57.839 22.2151 58.4385 22.0616 59.0288 21.8541C59.2256 21.7831 59.3285 21.6694 59.386 21.4846C59.6616 20.6064 59.9462 19.7282 60.2247 18.85C60.2368 18.8073 60.2519 18.7647 60.255 18.7221C60.2641 18.6425 60.2216 18.5942 60.1369 18.5885C60.0673 18.5856 59.9976 18.5885 59.9249 18.5885C59.7221 18.597 59.5193 18.6169 59.3164 18.6169C57.2517 18.6169 55.187 18.6197 53.1222 18.6169C52.8739 18.6169 52.6287 18.5856 52.3532 18.5657C52.3744 18.4521 52.3835 18.3668 52.4047 18.2872C52.659 17.3635 52.9193 16.4427 53.1767 15.5219C53.3341 14.9535 53.4946 14.3879 53.649 13.8194C53.6793 13.7086 53.7398 13.6546 53.8579 13.6517C53.9275 13.6517 53.9971 13.6517 54.0698 13.6517C58.7564 13.6517 63.4399 13.6517 68.1264 13.6517C68.196 13.6517 68.2688 13.6489 68.3384 13.6546C68.4988 13.6688 68.5291 13.7086 68.4837 13.8564C68.3989 14.1321 68.3081 14.4049 68.2234 14.6778C67.7631 16.2012 67.303 17.7245 66.8428 19.2479C66.4401 20.5808 66.0344 21.9138 65.6318 23.2467C65.4077 23.9885 65.1777 24.7246 64.9658 25.4692C64.8991 25.7023 64.7659 25.8416 64.5419 25.9553C63.4217 26.5351 62.2471 26.9926 61.027 27.3536C59.9129 27.6833 58.7775 27.922 57.615 28.0414C57.0337 28.1011 56.4464 28.1181 55.8651 28.1778C55.2929 28.2375 54.7267 28.1579 54.1606 28.138C53.3281 28.1068 52.5137 27.9675 51.7053 27.7913C50.8727 27.6094 50.0644 27.3621 49.2864 27.0296C48.4871 26.6885 47.7272 26.2821 47.0278 25.7819C46.0621 25.0884 45.2417 24.2699 44.5937 23.3064C43.961 22.36 43.525 21.3368 43.2708 20.2455C43.1072 19.5349 43.0194 18.8187 42.9862 18.0911C42.9256 16.8804 43.0679 15.6953 43.3404 14.5158C43.637 13.2368 44.1457 12.0346 44.8057 10.8892C45.0146 10.5283 45.2598 10.1873 45.4899 9.83766C45.5262 9.78366 45.5595 9.72678 45.62 9.62736L45.6079 9.62166ZM21.4091 14.5584C21.388 14.2884 21.3729 14.0184 21.3456 13.7484C21.2669 12.9782 21.0368 12.2534 20.6159 11.5855C20.2738 11.0427 19.8409 10.5795 19.2839 10.2185C18.6481 9.80637 17.9578 9.54777 17.1979 9.41417C16.4592 9.28628 15.7235 9.25787 14.9818 9.34027C14.116 9.43977 13.3106 9.71257 12.5598 10.1219C11.4124 10.7471 10.5163 11.6139 9.83807 12.674C8.98735 14.0013 8.50901 15.4309 8.53323 16.9941C8.54534 17.841 8.71489 18.651 9.09332 19.4241C9.55957 20.3705 10.2831 21.0839 11.2762 21.5529C11.9543 21.874 12.6779 22.0303 13.4347 22.1014C14.1614 22.1668 14.8728 22.1213 15.5752 21.9706C17.2312 21.6125 18.524 20.7286 19.5594 19.4923C20.0014 18.9665 20.3587 18.3895 20.6462 17.7756C21.1276 16.7497 21.4001 15.6811 21.4091 14.5556V14.5584Z" fill="#F58E22"/>
</g>
</svg>
