<svg width="45" height="32" viewBox="0 0 45 32" fill="none" xmlns="http://www.w3.org/2000/svg">
<g clip-path="url(#clip0_591_14257)">
<mask id="mask0_591_14257" style="mask-type:luminance" maskUnits="userSpaceOnUse" x="1" y="0" width="44" height="32">
<path d="M44.0434 0.108398H1.12341V31.3227H44.0434V0.108398Z" fill="white"/>
</mask>
<g mask="url(#mask0_591_14257)">
<path d="M31.2813 2.15379C32.8402 1.37313 33.613 1.47565 33.6299 2.26682C33.6505 3.29516 33.5016 4.66196 33.3944 5.65139C32.816 11.0278 31.8494 15.4215 31.7767 20.9419C34.3228 14.2196 36.4571 9.54732 39.2079 3.79297C40.0813 1.95924 40.6385 2.30202 41.3556 1.97716C44.1476 0.70918 44.2518 1.48614 43.8878 3.037C42.533 8.78148 39.0657 26.8686 38.5351 29.6534C38.3825 30.4594 37.5237 30.1178 37.3014 29.8023C36.307 28.3997 35.1846 28.378 35.3094 27.4454C35.9332 22.8022 38.1778 11.152 38.7634 8.40722C35.7806 14.6434 32.687 22.4396 31.0966 26.8599C30.7604 27.7987 30.1475 27.7296 29.7666 27.0427C29.2294 26.078 28.187 25.5851 28.0139 24.4457C27.47 20.8208 28.6376 13.9121 28.7999 9.54116C27.175 14.316 24.449 23.5859 23.2535 27.774C22.7617 29.5071 21.1192 29.2242 21.5559 27.5349C23.371 20.5064 27.2828 8.07494 28.9732 3.60583C29.3717 2.55278 30.4153 2.5886 31.2813 2.15379Z" fill="#CC071E"/>
<path d="M21.3852 1.29405C20.8589 1.16312 19.3308 2.00432 18.3921 2.17046C18.0941 2.22357 17.8101 2.54474 17.7096 2.77449C16.2057 6.29679 14.8581 9.6542 13.6911 12.7133C12.1981 12.9733 10.4521 13.3155 8.49769 13.7632C9.89734 10.102 11.3109 6.49134 12.6894 3.01845C13.3683 1.30825 11.581 1.14582 10.8875 2.87701C9.987 5.12763 8.29963 9.34416 6.43244 14.2585C5.06065 14.6014 3.60528 14.9936 2.08451 15.442C0.979206 15.7674 0.934389 16.0676 1.41225 16.7433C1.67569 17.1194 2.21956 17.0817 2.46909 17.3498C3.1135 18.0446 3.50475 18.8759 4.6585 19.0019C3.62951 21.809 2.60052 24.7032 1.66843 27.4905C1.08277 29.2402 2.74951 29.5978 3.39028 27.7468C4.4229 24.7625 5.51064 21.7423 6.62927 18.7308C7.56136 18.5096 9.81618 18.0143 11.8984 17.5542C10.2456 22.1728 9.15787 25.6809 8.746 27.3886C8.66968 27.7171 8.79812 27.8993 8.86711 28.0334C9.42491 28.861 9.95485 28.895 10.6719 29.9184C10.8658 30.1976 11.5174 30.3483 11.7391 29.6608C13.2702 24.944 14.8467 20.5182 16.3154 16.5512C16.9252 16.4153 18.0233 16.1447 18.6955 15.122C19.8905 13.3068 20.2339 13.6749 20.5216 13.1234C20.882 12.4304 20.6427 11.78 19.3678 11.9406C19.3678 11.9406 18.8863 11.9758 17.996 12.079C19.4096 8.3677 20.6463 5.21965 21.5366 2.82081C21.8419 2.00864 21.88 1.41511 21.3846 1.29467" fill="#CC071E"/>
<path d="M19.2944 25.3652C19.6232 26.2132 20.6522 25.9568 20.261 24.9329C19.8625 23.8897 18.8717 20.7503 18.6118 19.7386C18.2587 18.3756 19.7898 18.7486 19.014 19.6392C18.349 20.4057 17.905 20.7127 16.6756 22.1696C15.4873 23.576 15.8095 25.401 17.0808 25.8044C18.5149 26.2595 19.7795 24.6476 20.5626 23.4654C21.3215 22.3203 20.5868 21.649 19.8213 22.3259C19.3295 22.7613 18.7614 23.4296 18.1861 23.7896C17.7185 24.0799 17.3508 23.768 17.9747 22.8928C18.6991 21.8793 19.5094 21.0301 20.112 20.0722C21.3421 18.1205 18.9098 16.9952 17.8638 18.2631C17.3025 18.9389 17.4447 19.6028 17.5974 20.1722C17.8432 21.0844 18.7578 23.9966 19.295 25.3658" fill="#CC071E"/>
</g>
</g>
<defs>
<clipPath id="clip0_591_14257">
<rect width="43.7" height="31.9946" fill="white" transform="translate(0.389038 0.00292969)"/>
</clipPath>
</defs>
</svg>
