<svg width="62" height="32" viewBox="0 0 62 32" fill="none" xmlns="http://www.w3.org/2000/svg">
<g clip-path="url(#clip0_591_14305)">
<path d="M61.5822 20.3905C60.9122 21.9575 59.9553 23.3859 58.7614 24.6024C57.4031 25.9852 55.7224 27.0089 53.8701 27.5817C49.3793 28.8677 45.2653 28.1976 41.669 25.0784C39.5773 23.3106 38.173 20.8641 37.7011 18.1663C37.6959 18.1348 37.6351 18.1138 37.6034 18.0891C37.5937 17.9398 37.5849 17.7931 37.5762 17.6438C37.6765 17.4198 37.7927 17.2035 37.9247 16.9964C38.7092 15.948 39.5112 14.9139 40.3 13.868C42.9385 10.3712 45.5752 6.87358 48.2093 3.37515C50.6541 2.984 53.1596 3.3697 55.3738 4.478C57.8969 5.65567 59.9323 7.67595 61.1279 10.1914C61.2591 10.4644 61.4298 10.7198 61.5848 10.9837V11.1211L54.3182 13.7245C54.1483 13.4472 54.0162 13.2385 53.8842 13.0306C53.2415 12.1067 52.2977 11.4345 51.2149 11.1293C50.132 10.824 48.9761 10.9045 47.946 11.3569C47.0006 11.8185 46.2258 12.5668 45.731 13.4952C45.2371 14.4233 45.0487 15.484 45.1931 16.5257C45.378 17.5361 45.8763 18.4628 46.6167 19.1749C47.3571 19.8872 48.3026 20.3489 49.3195 20.4949C50.2535 20.6291 51.2069 20.4751 52.0521 20.0537C52.8973 19.6321 53.5937 18.9631 54.0488 18.1359C54.2504 17.816 54.4239 17.7481 54.7575 17.8719C55.7612 18.2477 56.7665 18.6177 57.7771 18.9689C59.0405 19.4066 60.3118 19.8248 61.5804 20.2532L61.5822 20.3905Z" fill="#FEA733"/>
<path d="M26.1554 14.3987L26.1341 27.1419V28.0293H24.4799C22.8452 28.0293 21.2038 27.9522 19.575 28.0565C19.1472 28.102 18.7154 28.0269 18.3281 27.8397C17.9409 27.6524 17.6137 27.3605 17.3839 26.9969C15.2334 24.1975 13.0252 21.4388 10.8417 18.6606C10.4447 18.1567 10.0629 17.6426 9.559 16.9826V27.9802H0.951172V3.35031H3.88801C5.36413 3.35031 6.84271 3.38676 8.31709 3.33077C8.53406 3.31642 8.75096 3.3607 8.94483 3.45886C9.13894 3.55702 9.30292 3.70563 9.41992 3.88893C11.3048 6.27553 13.1912 8.66099 15.0789 11.0453C15.9061 12.0972 16.7222 13.1593 17.7087 14.1917V3.48941C17.8006 3.55526 17.8859 3.63001 17.9632 3.7125C19.8329 6.1477 21.6992 8.58209 23.562 11.0156C24.4011 12.1048 25.2587 13.178 26.1071 14.2587L26.1554 14.3987Z" fill="#0196CD"/>
<path d="M26.1619 14.3969L26.1152 14.2611C26.1232 10.6327 26.1317 7.0041 26.1408 3.37565C28.2717 3.26366 28.2615 3.27291 29.5136 5.02045C30.5944 6.52536 31.7107 8.00569 32.8222 9.51663C34.2977 7.53488 35.7195 5.61435 37.1616 3.70473C37.2989 3.52126 37.5032 3.39933 37.7294 3.36544C41 3.35355 44.2697 3.36544 47.5402 3.37476C47.4628 3.41711 47.3818 3.45206 47.2981 3.47909C44.4088 4.08303 41.8293 5.69869 40.0245 8.03535C38.6027 9.79066 37.7241 11.923 37.4979 14.1704C37.4459 15.3278 37.4723 16.4876 37.5753 17.6417L37.6009 18.087V27.9843H28.5932V27.113C28.5932 24.2534 28.5678 21.3937 28.611 18.5349C28.6309 18.1926 28.5818 17.8497 28.4668 17.5267C28.3516 17.2036 28.1728 16.9069 27.9409 16.6542C27.3063 15.9374 26.7523 15.1518 26.1619 14.3969Z" fill="#FF7713"/>
<path d="M26.1422 3.37387C26.1326 7.00232 26.1235 10.6309 26.115 14.2594C25.2667 13.1786 24.4066 12.1046 23.5701 11.0163C21.6987 8.58443 19.8324 6.14977 17.9712 3.71228C17.8939 3.62979 17.8087 3.55504 17.7168 3.48919C17.8016 3.4442 17.8865 3.35943 17.9712 3.35943C20.6949 3.35881 23.4185 3.36365 26.1422 3.37387Z" fill="#00709E"/>
<path d="M37.5779 17.6444C37.475 16.4903 37.4485 15.3306 37.5005 14.1732C37.7268 11.9257 38.6054 9.79344 40.0272 8.03813C41.8319 5.70156 44.4114 4.08591 47.3008 3.48188C47.3853 3.45555 47.4663 3.41964 47.5429 3.375H48.2111C45.5761 6.87343 42.9404 10.3716 40.3018 13.8695C39.5139 14.9155 38.7111 15.9503 37.9266 16.998C37.7945 17.2048 37.6783 17.4208 37.5779 17.6444Z" fill="#D94F11"/>
</g>
<defs>
<clipPath id="clip0_591_14305">
<rect width="61.6585" height="32" fill="white" transform="translate(0.341797)"/>
</clipPath>
</defs>
</svg>
