<svg width="190" height="32" viewBox="0 0 190 32" fill="none" xmlns="http://www.w3.org/2000/svg">
<g clip-path="url(#clip0_1410_169702)">
<path d="M94.1572 10.6426C94.1572 7.92638 92.9233 6.29418 90.3014 6.29418C87.6794 6.29418 86.2359 8.05231 86.2359 10.245C86.2359 16.8158 96.6538 13.2082 96.6538 20.9494C96.6538 25.2064 94.0632 27.3967 90.1472 27.3967C86.2311 27.3967 83.8815 25.1743 83.8815 20.8556V20.2061H85.8094V21.0383C85.8094 23.8459 87.2553 25.7299 90.0845 25.7299C92.9137 25.7299 94.7211 24.3422 94.7211 21.2581C94.7211 14.7169 84.3056 18.4505 84.3056 10.4599C84.3056 7.00287 86.5034 4.62988 90.2363 4.62988C94.2391 4.62988 96.0755 6.72878 96.0755 10.6451H94.1572V10.6426Z" fill="#006098"/>
<path d="M99.0035 4.99805H100.931V27.0241H99.0035V4.99805Z" fill="#006098"/>
<path d="M104.3 4.99805H107.643L112.819 24.5548H112.88L118.058 4.99805H121.22V27.0241H119.292V6.85001H119.232L113.663 27.0241H111.858L106.286 6.85001H106.228V27.0241H104.3V4.99805Z" fill="#006098"/>
<path d="M124.657 4.99805H127.999L133.176 24.5548H133.236L138.415 4.99805H141.576V27.0241H139.649V6.85001H139.588L134.019 27.0241H132.214L126.645 6.85001H126.585V27.0241H124.657V4.99805Z" fill="#006098"/>
<path d="M151.5 4.62793C155.896 4.62793 158.366 8.11456 158.366 16.0113C158.366 23.9081 155.896 27.3947 151.5 27.3947C147.105 27.3947 144.637 23.9081 144.637 16.0113C144.637 8.11456 147.105 4.62793 151.5 4.62793ZM151.5 25.728C154.573 25.728 156.438 23.1377 156.438 16.0113C156.438 8.88498 154.573 6.2947 151.5 6.2947C148.428 6.2947 146.565 8.89239 146.565 16.0113C146.565 23.1303 148.43 25.728 151.5 25.728Z" fill="#006098"/>
<path d="M161.253 4.99805H163.844L172.061 24.1844H172.131V4.99805H174.059V27.0241H171.459L163.241 7.83773H163.181V27.0241H161.253V4.99805Z" fill="#006098"/>
<path d="M186.54 10.6426C186.54 7.92638 185.306 6.29418 182.684 6.29418C180.062 6.29418 178.621 8.05231 178.621 10.245C178.621 16.8158 189.037 13.2082 189.037 20.9494C189.037 25.2064 186.448 27.3967 182.53 27.3967C178.611 27.3967 176.264 25.1743 176.264 20.8556V20.2061H178.192V21.0383C178.192 23.8459 179.638 25.7299 182.467 25.7299C185.296 25.7299 187.101 24.3422 187.101 21.2581C187.101 14.7169 176.686 18.4505 176.686 10.4599C176.686 7.00287 178.884 4.62988 182.617 4.62988C186.622 4.62988 188.458 6.72878 188.458 10.6451H186.54V10.6426Z" fill="#006098"/>
<path d="M74.6924 17.7793H73.3912V32.0015H74.6924V17.7793Z" fill="#006098"/>
<path d="M74.5985 0H73.2972V14.2222H74.5985V0Z" fill="#5F2167"/>
<path d="M0.393433 4.90332H9.9703L13.0911 17.9757H13.1513L16.2842 4.90332H25.8514V27.1269H19.4845V12.8692H19.4243L15.6287 27.1269H10.6113L6.81336 12.8692H6.75311V27.1269H0.393433V4.90332Z" fill="#5F2167"/>
<path d="M31.5966 4.90332H44.4075C48.232 4.90332 51.5359 7.04913 51.5359 11.2519C51.5359 13.5557 50.4948 15.983 48.2609 16.8226C50.0972 17.5387 51.2299 19.5931 51.4733 22.3636C51.5648 23.4526 51.5962 26.0997 52.1962 27.1269H45.4871C45.1835 26.0108 44.9979 24.865 44.9377 23.7069C44.7521 21.5908 44.569 19.3807 41.9084 19.3807H38.3274V27.1318H31.5966V4.90332ZM38.3274 14.6126H41.8458C43.1013 14.6126 44.8148 14.3953 44.8148 12.3902C44.8148 10.9901 44.0484 10.1802 41.4795 10.1802H38.3274V14.6126Z" fill="#5F2167"/>
<path d="M56.5605 4.90332H63.2913V27.1269H56.5605V4.90332Z" fill="#5F2167"/>
</g>
<defs>
<clipPath id="clip0_1410_169702">
<rect width="188.632" height="32" fill="white" transform="translate(0.399231)"/>
</clipPath>
</defs>
</svg>
