<svg width="131" height="32" viewBox="0 0 131 32" fill="none" xmlns="http://www.w3.org/2000/svg">
<path d="M12.3991 19.7489C10.9952 19.7489 10.4028 18.8686 10.4028 17.1095V9.13316H15.0973V6.89066H10.4042V2.21289H7.17528L6.05218 6.89066H3.59961V9.13316H5.87669V18.045C5.87669 20.8545 7.19774 22.7228 10.9306 22.7228C12.8961 22.7228 14.6972 21.6724 15.8442 20.3952L15.0847 18.7779C14.2255 19.5206 13.438 19.7489 12.3991 19.7489Z" fill="black"/>
<path d="M93.4982 19.7489C92.0943 19.7489 91.5018 18.8686 91.5018 17.1095V9.13316H96.1964V6.89066H91.5018V2.21289H88.2729L87.1498 6.89066H84.7001V9.13316H86.9772V18.045C86.9772 20.8545 88.2982 22.7228 92.0311 22.7228C93.9965 22.7228 95.7977 21.6724 96.9447 20.3952L96.1852 18.7779C95.3246 19.5206 94.5384 19.7489 93.4982 19.7489Z" fill="black"/>
<path d="M124.118 4.99023C122.6 4.99023 121.364 6.12424 121.364 7.54175C121.364 8.67575 122.206 9.58579 123.304 9.58579C123.791 9.58617 124.262 9.4044 124.625 9.07549C124.765 11.4852 123.444 15.029 120.043 18.7542L117.85 6.88969H111.997V8.62047C113.318 8.87562 113.599 9.13077 114.021 11.1465L116.242 21.8756C112.897 24.1748 111.211 25.9055 111.211 27.6873C111.211 28.8511 111.855 29.7881 113.036 29.7881C114.892 29.7881 116.581 27.8036 117.874 23.1471C124.423 17.8399 127.178 12.958 127.178 8.81325C127.176 6.46586 126.023 4.99023 124.118 4.99023Z" fill="black"/>
<path d="M30.7042 18.4147V12.0544C30.7042 8.84655 28.5394 6.60547 24.4078 6.60547C20.8378 6.60547 18.0272 7.91099 18.0272 10.3519C18.0272 11.5441 18.8429 12.4527 20.0516 12.4527C21.2042 12.4527 22.1321 11.6291 22.1321 10.4086C22.1321 9.75517 21.9075 9.27463 21.5425 8.96136C22.0684 8.78732 22.619 8.70113 23.1724 8.70621C25.2782 8.70621 26.2076 9.86999 26.2076 11.8247V13.4988C19.7989 13.0736 17.0992 15.0311 17.0992 18.2673C17.0992 20.8188 18.9552 22.6956 22.0746 22.6956C23.9866 22.6956 25.6727 21.872 26.6287 20.5693L27.4444 22.4121H32.5854V20.6841C31.1815 20.4857 30.7042 20.0604 30.7042 18.4147ZM26.2118 18.0178C26.2118 19.0682 25.1996 19.9485 23.9347 19.9485C22.5014 19.9485 21.7419 19.098 21.7419 17.8222C21.7419 16.0631 22.6979 15.0694 26.2118 15.2962V18.0178Z" fill="black"/>
<path d="M44.4776 6.66797C42.2848 6.66797 40.4864 7.57659 39.4237 9.44912L39.536 6.8976H33.4025V8.62838C34.8063 8.82683 35.2865 9.28185 35.2865 10.9276V27.2417L33.234 27.7236V29.3693H42.3143V27.7236L39.8406 27.2133V21.763C40.7405 22.2733 41.8931 22.6135 43.4107 22.6135C47.8245 22.6135 51.1123 19.2923 51.1123 14.2119C51.1166 9.41651 48.3565 6.66797 44.4776 6.66797ZM42.3985 20.2023C41.4702 20.2196 40.5653 19.9081 39.8406 19.3221V13.8732C39.8406 11.1487 41.0494 9.50156 43.1299 9.50156C45.1262 9.50156 46.335 11.3174 46.335 14.3835C46.3336 18.1583 44.7879 20.2023 42.3985 20.2023Z" fill="black"/>
<path d="M108.395 6.60742C106.737 6.60742 105.166 7.85624 104.347 10.042L104.46 6.89092H98.4131V8.6217C99.817 8.82015 100.297 9.27517 100.297 10.9209V20.2878L98.2446 20.7697V22.4169H107.325V20.7711L104.851 20.2608V13.6751C104.851 11.7728 105.583 10.3822 106.707 9.75854C106.809 10.2061 107.059 10.605 107.417 10.8888C107.775 11.1725 108.218 11.3239 108.673 11.3178C109.966 11.3178 110.865 10.2674 110.865 9.0186C110.865 7.76978 110.023 6.60742 108.395 6.60742Z" fill="black"/>
<path d="M78.071 12.5681C75.7097 12.0862 74.4209 11.9728 74.4209 10.5836C74.4209 9.5616 75.2366 8.7678 76.7541 8.7678C78.6943 8.7678 79.8427 9.59137 80.3523 11.2938H81.926V7.51897C80.5769 6.98032 78.6367 6.61035 76.8721 6.61035C72.7405 6.61035 70.3792 8.51265 70.3792 11.7474C70.3792 15.4329 73.1055 16.0623 75.5229 16.5442C77.8843 17.0262 79.173 17.1396 79.173 18.5287C79.173 19.7776 78.1047 20.5444 76.3344 20.5444C73.9169 20.5444 72.8247 19.5224 72.1466 17.45H70.6024V21.3382C71.5851 21.9336 73.5505 22.7005 76.2179 22.7005C80.6036 22.7005 83.2176 20.7415 83.2176 17.365C83.219 13.6752 80.4927 13.0472 78.071 12.5681Z" fill="black"/>
<path d="M60.9225 6.60742C55.9753 6.60742 52.9668 9.98534 52.9668 14.8105C52.9668 19.4089 55.9739 22.7004 60.9225 22.7004C64.1837 22.7004 66.291 21.1964 67.6134 19.1566L66.517 18.1062C65.3083 19.2984 63.9311 19.8937 62.5539 19.8937C59.7461 19.8937 58.0278 18.0779 57.747 14.7907H67.7257C68.3996 11.1491 66.6012 6.60742 60.9225 6.60742ZM57.7147 12.7948C57.9393 9.98534 59.2323 8.82582 60.7218 8.82582C62.2955 8.82582 63.3077 10.1016 63.3358 12.7948H57.7147Z" fill="black"/>
</svg>
